# xmcd
# 
# Track frame offsets:
#     150
#     7467
#     28590
#     43039
#     58570
#     80866
#     107839
#     128731
#     145729
#     159028
#     176411
#     192753
#     212276
#     245720
#     262930
#     277720
#     288140
#     297667
#     304251
#     314506
# 
# Disc length: 4438
# 
# Revision: 0
# Processed by: cddbd v1.5.2PL0 Copyright (c) Steve Scherf et al.
# Submitted via: fre:ac v1.0.27
# 
DISCID=1f115414
DTITLE=Various Artist - #####
DYEAR=0
DGENRE=Français
TTITLE0=Bagpipe - Amazing Grace
TTITLE1=I Muvrini - Erein eta joan (Je sème et je m'envais)
TTITLE2=Hervé Cristiani - Il est Libre Max
TTITLE3=Mireille Mattieu - Accropolis Adieu
TTITLE4=Michel Sardou - Je vole
TTITLE5=Michel Sardou - Les lacs du Connemara
TTITLE6=Michel Sardou - Vladimir Ilitch
TTITLE7=Michel Sardou - Les deux écoles
TTITLE8=C. Jérome - Et tu danse avec lui
TTITLE9=Hervé Villard - Reviens
TTITLE10=Hervé Villard - Nous
TTITLE11=Claude François - Alexandrie, Alexandra
TTITLE12=Dalida - Gigi l'amoroso
TTITLE13=Hugues Aufrey - Stewball
TTITLE14=Hugues Aufrey - Santiano
TTITLE15=Les Choristes - La nuit
TTITLE16=Les Choristes - Caresse sur l'océan
TTITLE17=Les Choristes - Les Choristes
TTITLE18=Les Choristes - Vois sur ton chemin
TTITLE19=Le Trio Hellenique - La Danse de Zorba
EXTD=
EXTT0=
EXTT1=
EXTT2=
EXTT3=
EXTT4=
EXTT5=
EXTT6=
EXTT7=
EXTT8=
EXTT9=
EXTT10=
EXTT11=
EXTT12=
EXTT13=
EXTT14=
EXTT15=
EXTT16=
EXTT17=
EXTT18=
EXTT19=
PLAYORDER=
